<svg xmlns="http://www.w3.org/2000/svg" width="1080" height="1350" viewBox="0 0 1080 1350" role="img" aria-labelledby="t">
<title id="t">Sunwhistle - Tiny habits, big sunshine</title>
<style><![CDATA[@import url('https://fonts.googleapis.com/css2?family=Fraunces:ital,opsz,wght@0,9..144,400..900;1,9..144,400..900&family=DM+Sans:wght@400;500;700&display=swap');
.d{font-family:'Fraunces',Georgia,serif;font-weight:700;letter-spacing:-0.01em}
.di{font-family:'Fraunces',Georgia,serif;font-weight:600;font-style:italic}
.b{font-family:'DM Sans',Arial,sans-serif;font-weight:400}
.bm{font-family:'DM Sans',Arial,sans-serif;font-weight:500}
.bb{font-family:'DM Sans',Arial,sans-serif;font-weight:700;letter-spacing:0.04em}
]]></style>
<defs>
<radialGradient id="g1" cx="0.5" cy="1" r="0.95"><stop offset="0" stop-color="#FFE4C8"/><stop offset="0.6" stop-color="#FFF6E9"/><stop offset="1" stop-color="#FFF6E9"/></radialGradient>
<clipPath id="sunclip"><circle cx="540" cy="1290" r="300"/></clipPath></defs>
<rect width="1080" height="1350" fill="url(#g1)"/><circle cx="980" cy="120" r="170" fill="#FFC93C" opacity="0.28"/><circle cx="60" cy="760" r="120" fill="#7FB7A4" opacity="0.22"/><g fill="#FFC93C" opacity="1"><rect x="525" y="820" width="30" height="134" rx="15" transform="rotate(7.5 540 1290)"/><rect x="525" y="820" width="30" height="134" rx="15" transform="rotate(22.5 540 1290)"/><rect x="525" y="820" width="30" height="134" rx="15" transform="rotate(37.5 540 1290)"/><rect x="525" y="820" width="30" height="134" rx="15" transform="rotate(52.5 540 1290)"/><rect x="525" y="820" width="30" height="134" rx="15" transform="rotate(67.5 540 1290)"/><rect x="525" y="820" width="30" height="134" rx="15" transform="rotate(82.5 540 1290)"/><rect x="525" y="820" width="30" height="134" rx="15" transform="rotate(97.5 540 1290)"/><rect x="525" y="820" width="30" height="134" rx="15" transform="rotate(112.5 540 1290)"/><rect x="525" y="820" width="30" height="134" rx="15" transform="rotate(127.5 540 1290)"/><rect x="525" y="820" width="30" height="134" rx="15" transform="rotate(142.5 540 1290)"/><rect x="525" y="820" width="30" height="134" rx="15" transform="rotate(157.5 540 1290)"/><rect x="525" y="820" width="30" height="134" rx="15" transform="rotate(172.5 540 1290)"/><rect x="525" y="820" width="30" height="134" rx="15" transform="rotate(187.5 540 1290)"/><rect x="525" y="820" width="30" height="134" rx="15" transform="rotate(202.5 540 1290)"/><rect x="525" y="820" width="30" height="134" rx="15" transform="rotate(217.5 540 1290)"/><rect x="525" y="820" width="30" height="134" rx="15" transform="rotate(232.5 540 1290)"/><rect x="525" y="820" width="30" height="134" rx="15" transform="rotate(247.5 540 1290)"/><rect x="525" y="820" width="30" height="134" rx="15" transform="rotate(262.5 540 1290)"/><rect x="525" y="820" width="30" height="134" rx="15" transform="rotate(277.5 540 1290)"/><rect x="525" y="820" width="30" height="134" rx="15" transform="rotate(292.5 540 1290)"/><rect x="525" y="820" width="30" height="134" rx="15" transform="rotate(307.5 540 1290)"/><rect x="525" y="820" width="30" height="134" rx="15" transform="rotate(322.5 540 1290)"/><rect x="525" y="820" width="30" height="134" rx="15" transform="rotate(337.5 540 1290)"/><rect x="525" y="820" width="30" height="134" rx="15" transform="rotate(352.5 540 1290)"/></g><g fill="#FF8A3D" opacity="0.9"><rect x="532" y="890" width="16" height="70" rx="8" transform="rotate(0 540 1290)"/><rect x="532" y="890" width="16" height="70" rx="8" transform="rotate(15 540 1290)"/><rect x="532" y="890" width="16" height="70" rx="8" transform="rotate(30 540 1290)"/><rect x="532" y="890" width="16" height="70" rx="8" transform="rotate(45 540 1290)"/><rect x="532" y="890" width="16" height="70" rx="8" transform="rotate(60 540 1290)"/><rect x="532" y="890" width="16" height="70" rx="8" transform="rotate(75 540 1290)"/><rect x="532" y="890" width="16" height="70" rx="8" transform="rotate(90 540 1290)"/><rect x="532" y="890" width="16" height="70" rx="8" transform="rotate(105 540 1290)"/><rect x="532" y="890" width="16" height="70" rx="8" transform="rotate(120 540 1290)"/><rect x="532" y="890" width="16" height="70" rx="8" transform="rotate(135 540 1290)"/><rect x="532" y="890" width="16" height="70" rx="8" transform="rotate(150 540 1290)"/><rect x="532" y="890" width="16" height="70" rx="8" transform="rotate(165 540 1290)"/><rect x="532" y="890" width="16" height="70" rx="8" transform="rotate(180 540 1290)"/><rect x="532" y="890" width="16" height="70" rx="8" transform="rotate(195 540 1290)"/><rect x="532" y="890" width="16" height="70" rx="8" transform="rotate(210 540 1290)"/><rect x="532" y="890" width="16" height="70" rx="8" transform="rotate(225 540 1290)"/><rect x="532" y="890" width="16" height="70" rx="8" transform="rotate(240 540 1290)"/><rect x="532" y="890" width="16" height="70" rx="8" transform="rotate(255 540 1290)"/><rect x="532" y="890" width="16" height="70" rx="8" transform="rotate(270 540 1290)"/><rect x="532" y="890" width="16" height="70" rx="8" transform="rotate(285 540 1290)"/><rect x="532" y="890" width="16" height="70" rx="8" transform="rotate(300 540 1290)"/><rect x="532" y="890" width="16" height="70" rx="8" transform="rotate(315 540 1290)"/><rect x="532" y="890" width="16" height="70" rx="8" transform="rotate(330 540 1290)"/><rect x="532" y="890" width="16" height="70" rx="8" transform="rotate(345 540 1290)"/></g><circle cx="540" cy="1290" r="300" fill="#FF8A3D"/><g clip-path="url(#sunclip)"><path d="M220 1110 q28 -22 56 0 t56 0 t56 0 t56 0 t56 0 t56 0 t56 0 t56 0 t56 0 t56 0 t56 0 t56 0" fill="none" stroke="#FFF6E9" stroke-width="12" stroke-linecap="round" /><path d="M220 1160 q28 -22 56 0 t56 0 t56 0 t56 0 t56 0 t56 0 t56 0 t56 0 t56 0 t56 0 t56 0 t56 0" fill="none" stroke="#FFC93C" stroke-width="12" stroke-linecap="round" /><path d="M220 1210 q28 -22 56 0 t56 0 t56 0 t56 0 t56 0 t56 0 t56 0 t56 0 t56 0 t56 0 t56 0 t56 0" fill="none" stroke="#FFF6E9" stroke-width="12" stroke-linecap="round" /></g><g><g transform="translate(72 64) scale(0.48)"><g fill="#FFC93C" opacity="1"><rect x="92.5" y="4" width="15" height="34" rx="7.5" transform="rotate(0 100 100)"/><rect x="92.5" y="4" width="15" height="34" rx="7.5" transform="rotate(30 100 100)"/><rect x="92.5" y="4" width="15" height="34" rx="7.5" transform="rotate(60 100 100)"/><rect x="92.5" y="4" width="15" height="34" rx="7.5" transform="rotate(90 100 100)"/><rect x="92.5" y="4" width="15" height="34" rx="7.5" transform="rotate(120 100 100)"/><rect x="92.5" y="4" width="15" height="34" rx="7.5" transform="rotate(150 100 100)"/><rect x="92.5" y="4" width="15" height="34" rx="7.5" transform="rotate(180 100 100)"/><rect x="92.5" y="4" width="15" height="34" rx="7.5" transform="rotate(210 100 100)"/><rect x="92.5" y="4" width="15" height="34" rx="7.5" transform="rotate(240 100 100)"/><rect x="92.5" y="4" width="15" height="34" rx="7.5" transform="rotate(270 100 100)"/><rect x="92.5" y="4" width="15" height="34" rx="7.5" transform="rotate(300 100 100)"/><rect x="92.5" y="4" width="15" height="34" rx="7.5" transform="rotate(330 100 100)"/></g><circle cx="100" cy="100" r="50" fill="#FF8A3D"/><path d="M58 110 q10.5 -10 21 0 t21 0 t21 0 t21 0" fill="none" stroke="#FFF6E9" stroke-width="7" stroke-linecap="round"/><path d="M65 127 q8.75 -8 17.5 0 t17.5 0 t17.5 0 t17.5 0" fill="none" stroke="#FFF6E9" stroke-width="6" stroke-linecap="round"/></g><text x="169.92" y="127.36" class="d" font-size="44.16" fill="#3A2416">Sunwhistle</text></g><g><rect x="765.12" y="82" width="242.88" height="46.2" rx="23.1" fill="#FFFDF8" stroke="#3A2416" stroke-width="3"/><text x="886.56" y="112.8" text-anchor="middle" class="bb" font-size="22" fill="#3A2416">HABITS 01 / 05</text></g><text class="d" font-size="108" fill="#3A2416"><tspan x="72" y="340">Tiny habits,</tspan><tspan x="72" y="456">big <tspan class="di">sunshine.</tspan></tspan></text><path d="M300 488 q18 -10 36 0 t36 0 t36 0 t36 0 t36 0 t36 0 t36 0 t36 0 t36 0 t36 0 t36 0 t36 0 t36 0 t36 0" fill="none" stroke="#FF8A3D" stroke-width="9" stroke-linecap="round" /><text class="b" font-size="36" fill="#3A2416"><tspan x="72" y="572">Five feel-good micro-habits you can</tspan><tspan x="72" y="622">start before your coffee cools.</tspan></text><g><rect x="72" y="680" width="171.92" height="58.8" rx="29.4" fill="#7FB7A4" stroke="#3A2416" stroke-width="3"/><text x="157.96" y="719.2" text-anchor="middle" class="bm" font-size="28" fill="#3A2416">Hydrate</text></g><g><rect x="261.92" y="680" width="171.92" height="58.8" rx="29.4" fill="#FFC93C" stroke="#3A2416" stroke-width="3"/><text x="347.88" y="719.2" text-anchor="middle" class="bm" font-size="28" fill="#3A2416">Stretch</text></g><g><rect x="451.84" y="680" width="258.72" height="58.8" rx="29.4" fill="#FFFDF8" stroke="#3A2416" stroke-width="3"/><text x="581.2" y="719.2" text-anchor="middle" class="bm" font-size="28" fill="#3A2416">Step outside</text></g><g transform="rotate(12 860 800)"><circle cx="860" cy="800" r="118" fill="#FFC93C" stroke="#3A2416" stroke-width="4"/><circle cx="860" cy="800" r="104" fill="none" stroke="#3A2416" stroke-width="2.5" stroke-dasharray="6 9" stroke-linecap="round"/><text x="860" y="814" text-anchor="middle" class="d" font-size="84" fill="#3A2416">5</text><text x="860" y="850" text-anchor="middle" class="bb" font-size="20" fill="#3A2416">MINI HABITS</text><text x="860" y="748" text-anchor="middle" class="bb" font-size="15" fill="#3A2416">NO GYM NEEDED</text></g><g><rect x="578" y="1176" width="430" height="63" rx="31.5" fill="#3A2416"/><text x="793" y="1218" dx="-24" text-anchor="middle" class="bm" font-size="30" fill="#FFF6E9">Swipe for habit #1</text></g><path d="M933 1207 h36 m-14.4 -12.6 l14.4 12.6 l-14.4 12.6" fill="none" stroke="#FFC93C" stroke-width="5" stroke-linecap="round" stroke-linejoin="round"/></svg>
