<svg xmlns="http://www.w3.org/2000/svg" width="1200" height="1350" viewBox="0 0 1200 1350" role="img" aria-labelledby="t">
<title id="t">Sunwhistle - Wellness does not need an hour</title>
<style><![CDATA[@import url('https://fonts.googleapis.com/css2?family=Fraunces:ital,opsz,wght@0,9..144,400..900;1,9..144,400..900&family=DM+Sans:wght@400;500;700&display=swap');
.d{font-family:'Fraunces',Georgia,serif;font-weight:700;letter-spacing:-0.01em}
.di{font-family:'Fraunces',Georgia,serif;font-weight:600;font-style:italic}
.b{font-family:'DM Sans',Arial,sans-serif;font-weight:400}
.bm{font-family:'DM Sans',Arial,sans-serif;font-weight:500}
.bb{font-family:'DM Sans',Arial,sans-serif;font-weight:700;letter-spacing:0.04em}
]]></style>
<defs></defs>
<rect width="1200" height="1350" fill="#FFF6E9"/><g fill="#FFC93C" opacity="0.55"><rect x="1149" y="-170" width="22" height="140" rx="11" transform="rotate(0 1160 90)"/><rect x="1149" y="-170" width="22" height="140" rx="11" transform="rotate(22.5 1160 90)"/><rect x="1149" y="-170" width="22" height="140" rx="11" transform="rotate(45 1160 90)"/><rect x="1149" y="-170" width="22" height="140" rx="11" transform="rotate(67.5 1160 90)"/><rect x="1149" y="-170" width="22" height="140" rx="11" transform="rotate(90 1160 90)"/><rect x="1149" y="-170" width="22" height="140" rx="11" transform="rotate(112.5 1160 90)"/><rect x="1149" y="-170" width="22" height="140" rx="11" transform="rotate(135 1160 90)"/><rect x="1149" y="-170" width="22" height="140" rx="11" transform="rotate(157.5 1160 90)"/><rect x="1149" y="-170" width="22" height="140" rx="11" transform="rotate(180 1160 90)"/><rect x="1149" y="-170" width="22" height="140" rx="11" transform="rotate(202.5 1160 90)"/><rect x="1149" y="-170" width="22" height="140" rx="11" transform="rotate(225 1160 90)"/><rect x="1149" y="-170" width="22" height="140" rx="11" transform="rotate(247.5 1160 90)"/><rect x="1149" y="-170" width="22" height="140" rx="11" transform="rotate(270 1160 90)"/><rect x="1149" y="-170" width="22" height="140" rx="11" transform="rotate(292.5 1160 90)"/><rect x="1149" y="-170" width="22" height="140" rx="11" transform="rotate(315 1160 90)"/><rect x="1149" y="-170" width="22" height="140" rx="11" transform="rotate(337.5 1160 90)"/></g><circle cx="1160" cy="90" r="96" fill="#FFC93C" opacity="0.7"/><g><g transform="translate(64 64) scale(0.42)"><g fill="#FFC93C" opacity="1"><rect x="92.5" y="4" width="15" height="34" rx="7.5" transform="rotate(0 100 100)"/><rect x="92.5" y="4" width="15" height="34" rx="7.5" transform="rotate(30 100 100)"/><rect x="92.5" y="4" width="15" height="34" rx="7.5" transform="rotate(60 100 100)"/><rect x="92.5" y="4" width="15" height="34" rx="7.5" transform="rotate(90 100 100)"/><rect x="92.5" y="4" width="15" height="34" rx="7.5" transform="rotate(120 100 100)"/><rect x="92.5" y="4" width="15" height="34" rx="7.5" transform="rotate(150 100 100)"/><rect x="92.5" y="4" width="15" height="34" rx="7.5" transform="rotate(180 100 100)"/><rect x="92.5" y="4" width="15" height="34" rx="7.5" transform="rotate(210 100 100)"/><rect x="92.5" y="4" width="15" height="34" rx="7.5" transform="rotate(240 100 100)"/><rect x="92.5" y="4" width="15" height="34" rx="7.5" transform="rotate(270 100 100)"/><rect x="92.5" y="4" width="15" height="34" rx="7.5" transform="rotate(300 100 100)"/><rect x="92.5" y="4" width="15" height="34" rx="7.5" transform="rotate(330 100 100)"/></g><circle cx="100" cy="100" r="50" fill="#FF8A3D"/><path d="M58 110 q10.5 -10 21 0 t21 0 t21 0 t21 0" fill="none" stroke="#FFF6E9" stroke-width="7" stroke-linecap="round"/><path d="M65 127 q8.75 -8 17.5 0 t17.5 0 t17.5 0 t17.5 0" fill="none" stroke="#FFF6E9" stroke-width="6" stroke-linecap="round"/></g><text x="149.68" y="119.44" class="d" font-size="38.64" fill="#3A2416">Sunwhistle</text></g><g><rect x="64" y="176" width="335.2" height="42" rx="21" fill="#7FB7A4"/><text x="231.6" y="204" text-anchor="middle" class="bb" font-size="20" fill="#3A2416">FIELD NOTES  ·  NO. 12</text></g><text class="d" font-size="84" fill="#3A2416"><tspan x="64" y="330">Wellness doesn&#8217;t</tspan><tspan x="64" y="424">need an hour.</tspan><tspan x="64" y="518" class="di">Try ten minutes.</tspan></text><circle cx="350" cy="850" r="252" fill="#FFFDF8" stroke="#3A2416" stroke-width="3"/><circle cx="350" cy="850" r="200" fill="none" stroke="#FFC93C" stroke-width="66" stroke-dasharray="362.99 893.65" stroke-dashoffset="0" transform="rotate(-90 350 850)"/><circle cx="350" cy="850" r="200" fill="none" stroke="#7FB7A4" stroke-width="66" stroke-dasharray="237.33 1019.31" stroke-dashoffset="-376.99" transform="rotate(-90 350 850)"/><circle cx="350" cy="850" r="200" fill="none" stroke="#FF8A3D" stroke-width="66" stroke-dasharray="614.32 642.32" stroke-dashoffset="-628.32" transform="rotate(-90 350 850)"/><text x="350" y="880" text-anchor="middle" class="d" font-size="150" fill="#3A2416">10</text><text x="350" y="928" text-anchor="middle" class="bb" font-size="24" fill="#3A2416">MINUTES A DAY</text><g transform="rotate(-1.5 885 705)"><rect x="646" y="648" width="490" height="130" rx="34" fill="#3A2416"/><rect x="640" y="640" width="490" height="130" rx="34" fill="#FFFDF8" stroke="#3A2416" stroke-width="3"/><rect x="662" y="664" width="132" height="82" rx="41" fill="#FFC93C"/><text x="728" y="717" text-anchor="middle" class="d" font-size="38" fill="#3A2416">3 min</text><text x="816" y="700" class="d" font-size="28" fill="#3A2416">Stretch it out</text><text x="816" y="736" class="b" font-size="21" fill="#3A2416">Shoulders, hips, calves.</text></g><g transform="rotate(1.5 885 857)"><rect x="646" y="800" width="490" height="130" rx="34" fill="#3A2416"/><rect x="640" y="792" width="490" height="130" rx="34" fill="#FFFDF8" stroke="#3A2416" stroke-width="3"/><rect x="662" y="816" width="132" height="82" rx="41" fill="#7FB7A4"/><text x="728" y="869" text-anchor="middle" class="d" font-size="38" fill="#3A2416">2 min</text><text x="816" y="852" class="d" font-size="28" fill="#3A2416">Breathe &amp; sip</text><text x="816" y="888" class="b" font-size="21" fill="#3A2416">Slow breaths, cool water.</text></g><g transform="rotate(-1.5 885 1009)"><rect x="646" y="952" width="490" height="130" rx="34" fill="#3A2416"/><rect x="640" y="944" width="490" height="130" rx="34" fill="#FFFDF8" stroke="#3A2416" stroke-width="3"/><rect x="662" y="968" width="132" height="82" rx="41" fill="#FF8A3D"/><text x="728" y="1021" text-anchor="middle" class="d" font-size="38" fill="#3A2416">5 min</text><text x="816" y="1004" class="d" font-size="28" fill="#3A2416">Walk in the light</text><text x="816" y="1040" class="b" font-size="21" fill="#3A2416">Around the block counts.</text></g><path d="M64 1124 q24 -12 48 0 t48 0 t48 0 t48 0 t48 0 t48 0 t48 0 t48 0 t48 0 t48 0 t48 0 t48 0 t48 0 t48 0 t48 0 t48 0 t48 0 t48 0 t48 0 t48 0 t48 0 t48 0" fill="none" stroke="#7FB7A4" stroke-width="6" stroke-linecap="round" opacity="0.8"/><g><rect x="64" y="1150" width="520" height="58.8" rx="29.4" fill="#3A2416"/><text x="324" y="1189.2" dx="-22" text-anchor="middle" class="bm" font-size="28" fill="#FFF6E9">Read the full field note</text></g><path d="M520 1179 h30 m-12 -10.5 l12 10.5 l-12 10.5" fill="none" stroke="#FFC93C" stroke-width="5" stroke-linecap="round" stroke-linejoin="round"/><text x="64" y="1274" class="b" font-size="23" fill="#3A2416">A Sunwhistle everyday framework. General wellness ideas, not medical advice.</text></svg>
