<svg xmlns="http://www.w3.org/2000/svg" width="512" height="512" viewBox="0 0 512 512" role="img" aria-label="Sunwhistle sun mark">
<rect width="512" height="512" rx="120" fill="#FFF6E9"/>
<g transform="translate(36 36) scale(2.2)"><g fill="#FFC93C" opacity="1"><rect x="92.5" y="4" width="15" height="34" rx="7.5" transform="rotate(0 100 100)"/><rect x="92.5" y="4" width="15" height="34" rx="7.5" transform="rotate(30 100 100)"/><rect x="92.5" y="4" width="15" height="34" rx="7.5" transform="rotate(60 100 100)"/><rect x="92.5" y="4" width="15" height="34" rx="7.5" transform="rotate(90 100 100)"/><rect x="92.5" y="4" width="15" height="34" rx="7.5" transform="rotate(120 100 100)"/><rect x="92.5" y="4" width="15" height="34" rx="7.5" transform="rotate(150 100 100)"/><rect x="92.5" y="4" width="15" height="34" rx="7.5" transform="rotate(180 100 100)"/><rect x="92.5" y="4" width="15" height="34" rx="7.5" transform="rotate(210 100 100)"/><rect x="92.5" y="4" width="15" height="34" rx="7.5" transform="rotate(240 100 100)"/><rect x="92.5" y="4" width="15" height="34" rx="7.5" transform="rotate(270 100 100)"/><rect x="92.5" y="4" width="15" height="34" rx="7.5" transform="rotate(300 100 100)"/><rect x="92.5" y="4" width="15" height="34" rx="7.5" transform="rotate(330 100 100)"/></g><circle cx="100" cy="100" r="50" fill="#FF8A3D"/><path d="M58 110 q10.5 -10 21 0 t21 0 t21 0 t21 0" fill="none" stroke="#FFF6E9" stroke-width="7" stroke-linecap="round"/><path d="M65 127 q8.75 -8 17.5 0 t17.5 0 t17.5 0 t17.5 0" fill="none" stroke="#FFF6E9" stroke-width="6" stroke-linecap="round"/></g>
</svg>
