<svg xmlns="http://www.w3.org/2000/svg" xmlns:xlink="http://www.w3.org/1999/xlink" width="1080" height="1350" viewBox="0 0 1080 1350" role="img" aria-label="Pennywren Instagram carousel cover: Give every dollar a job">
  <title>Give every dollar a job</title>
  <style>@import url('https://fonts.googleapis.com/css2?family=Bricolage+Grotesque:opsz,wght@12..96,600;12..96,800&amp;family=Figtree:wght@400;600;700&amp;display=swap');
  .d{font-family:'Bricolage Grotesque','Trebuchet MS',Arial,sans-serif;font-weight:800;letter-spacing:-0.02em}
  .b{font-family:'Figtree','Segoe UI',Arial,sans-serif}</style>
  <defs>
    <pattern id="dots" width="28" height="28" patternUnits="userSpaceOnUse"><circle cx="4" cy="4" r="3" fill="#1F7A5A" opacity="0.12"/></pattern>
    <g id="wren">
      <path d="M196 262 L118 132 Q110 114 128 110 L150 106 Q166 104 174 120 L240 236 Z" fill="#1F7A5A"/>
      <ellipse cx="262" cy="292" rx="118" ry="92" fill="#1F7A5A"/>
      <circle cx="334" cy="222" r="64" fill="#1F7A5A"/>
      <path d="M392 206 L440 222 L392 238 Z" fill="#F2B544"/>
      <circle cx="350" cy="208" r="12" fill="#FFFFFF"/>
      <circle cx="246" cy="290" r="50" fill="#F2B544"/>
      <circle cx="246" cy="290" r="34" fill="none" stroke="#FFFFFF" stroke-width="7"/>
      <path d="M232 380 L226 412 M282 380 L288 412" stroke="#1D2939" stroke-width="12" stroke-linecap="round"/>
    </g>
  </defs>
  <rect width="1080" height="1350" fill="#FFFFFF"/>
  <rect x="760" y="0" width="320" height="300" fill="url(#dots)"/>
  <!-- logo -->
  <g transform="translate(64 64) scale(0.156)">
    <rect width="512" height="512" rx="120" fill="#1F7A5A"/>
    <path d="M196 262 L118 132 Q110 114 128 110 L150 106 Q166 104 174 120 L240 236 Z" fill="#FFFFFF"/>
    <ellipse cx="262" cy="292" rx="118" ry="92" fill="#FFFFFF"/>
    <circle cx="334" cy="222" r="64" fill="#FFFFFF"/>
    <path d="M392 206 L440 222 L392 238 Z" fill="#F2B544"/>
    <circle cx="350" cy="208" r="11" fill="#1D2939"/>
    <circle cx="246" cy="290" r="50" fill="#F2B544"/>
    <rect x="140" y="406" width="248" height="18" rx="9" fill="#E8F3EE"/>
  </g>
  <text class="d" x="162" y="120" font-size="44" fill="#1D2939">penny<tspan fill="#1F7A5A">wren</tspan></text>
  <text class="b" x="1016" y="116" font-size="28" font-weight="700" fill="#475467" text-anchor="end">01 / 05</text>

  <!-- headline -->
  <text class="d" x="64" y="300" font-size="104" fill="#1D2939">Give every</text>
  <text class="d" x="64" y="410" font-size="104" fill="#1D2939">dollar a <tspan fill="#1F7A5A">job.</tspan></text>
  <rect x="64" y="430" width="196" height="12" rx="6" fill="#F2B544"/>
  <text class="b" x="64" y="500" font-size="34" font-weight="400" fill="#475467">A gentle envelope method, in 5 slides.</text>

  <!-- panel with jars -->
  <rect x="64" y="560" width="952" height="550" rx="48" fill="#E8F3EE"/>
  <circle cx="1016" cy="1110" r="120" fill="#1F7A5A" opacity="0.06"/>
  <!-- jar 1 -->
  <g>
    <rect x="144" y="600" width="200" height="40" rx="14" fill="#1D2939"/>
    <rect x="124" y="636" width="240" height="320" rx="48" fill="#FFFFFF" stroke="#1D2939" stroke-width="6"/>
    <rect x="138" y="682" width="212" height="260" rx="36" fill="#1F7A5A"/>
    <path d="M150 720 Q244 700 338 720" stroke="#FFFFFF" stroke-width="6" fill="none" opacity="0.35" stroke-linecap="round"/>
    <text class="b" x="244" y="1010" font-size="32" font-weight="600" fill="#1D2939" text-anchor="middle">Rent</text>
    <text class="d" x="244" y="1066" font-size="48" fill="#1F7A5A" text-anchor="middle">$1,400</text>
  </g>
  <!-- jar 2 -->
  <g>
    <rect x="440" y="600" width="200" height="40" rx="14" fill="#1D2939"/>
    <rect x="420" y="636" width="240" height="320" rx="48" fill="#FFFFFF" stroke="#1D2939" stroke-width="6"/>
    <rect x="434" y="772" width="212" height="170" rx="36" fill="#F2B544"/>
    <path d="M446 810 Q540 790 634 810" stroke="#FFFFFF" stroke-width="6" fill="none" opacity="0.5" stroke-linecap="round"/>
    <text class="b" x="540" y="1010" font-size="32" font-weight="600" fill="#1D2939" text-anchor="middle">Groceries</text>
    <text class="d" x="540" y="1066" font-size="48" fill="#1F7A5A" text-anchor="middle">$520</text>
  </g>
  <!-- jar 3 -->
  <g>
    <rect x="736" y="600" width="200" height="40" rx="14" fill="#1D2939"/>
    <rect x="716" y="636" width="240" height="320" rx="48" fill="#FFFFFF" stroke="#1D2939" stroke-width="6"/>
    <rect x="730" y="842" width="212" height="100" rx="36" fill="#1F7A5A" opacity="0.45"/>
    <text class="b" x="836" y="1010" font-size="32" font-weight="600" fill="#1D2939" text-anchor="middle">Fun money</text>
    <text class="d" x="836" y="1066" font-size="48" fill="#1F7A5A" text-anchor="middle">$180</text>
  </g>
  <use xlink:href="#wren" href="#wren" transform="translate(762 486) scale(0.28)"/>

  <!-- CTA -->
  <rect x="64" y="1150" width="600" height="92" rx="46" fill="#1F7A5A"/>
  <text class="b" x="108" y="1209" font-size="36" font-weight="700" fill="#FFFFFF">Swipe for the 5 rules  →</text>
  <circle cx="900" cy="1196" r="10" fill="#1F7A5A"/>
  <circle cx="932" cy="1196" r="8" fill="#1F7A5A" opacity="0.3"/>
  <circle cx="960" cy="1196" r="8" fill="#1F7A5A" opacity="0.3"/>
  <circle cx="988" cy="1196" r="8" fill="#1F7A5A" opacity="0.3"/>
  <circle cx="1012" cy="1196" r="8" fill="#1F7A5A" opacity="0.3"/>
  <text class="b" x="64" y="1286" font-size="22" font-weight="400" fill="#475467">Illustrative amounts. Educational, not financial advice.</text>
</svg>
